<svg width="149" height="24" viewBox="0 0 149 24" fill="none" xmlns="http://www.w3.org/2000/svg">
<path d="M11.2834 0.60951L10.3192 6.2613H6.97202C3.84935 6.2613 0.87295 8.87615 0.321293 12.1036L0.0877932 13.4773C-0.461294 16.7048 1.62218 19.3197 4.74485 19.3197H7.53651C9.81243 19.3197 11.9806 17.4155 12.3809 15.0632L14.9519 0L11.2834 0.60951ZM8.90842 14.5302C8.78525 15.2568 8.15231 15.8482 7.44927 15.8482H5.75323C4.3497 15.8482 3.4106 14.6707 3.65691 13.2174L3.80318 12.3608C4.05206 10.9102 5.39144 9.73008 6.79497 9.73008H9.72735L8.90842 14.5302ZM37.0609 19.3194L39.2573 6.44135H42.7314L40.5351 19.3194H37.0583H37.0609ZM37.4367 6.58984C37.2625 7.6113 37.0876 8.63277 36.9135 9.65424C35.2676 9.12559 33.5695 9.29394 33.0477 9.40147C32.4843 12.7082 31.9201 16.0158 31.356 19.3226H27.8795C28.3516 16.5557 29.9644 7.10657 29.9644 7.10657C31.0951 6.62263 33.8718 5.64048 37.4367 6.58984ZM23.3505 6.25912H20.6461C18.011 6.25912 15.4991 8.46554 15.0346 11.1891L14.4881 14.3901C14.0236 17.1136 15.7813 19.3201 18.4165 19.3201H24.1691L24.7593 15.8593H19.3529C18.4754 15.8593 17.8878 15.1246 18.0444 14.215L18.0623 14.1063H26.7786L27.2764 11.1891C27.7407 8.46554 25.9831 6.25912 23.348 6.25912H23.3505ZM23.7893 10.9133L23.7688 11.0989H18.5858L18.614 10.9345C18.7705 10.0276 19.5711 9.22932 20.4511 9.22932H22.4756C23.3454 9.22932 23.9331 10.0143 23.7893 10.9133ZM56.2868 6.44135C55.1025 9.69575 52.3884 15.2318 49.7592 19.3194H46.2826C45.0757 15.4289 44.2964 10.0083 44.1477 6.44135H47.6245C47.6873 7.60487 48.1912 11.9206 48.7664 14.9355C50.3438 12.0024 52.0829 8.15412 52.8075 6.44135H56.2868Z" fill="#FF444F"/>
<path d="M71.7677 19.3333C71.5045 18.6133 71.2568 17.9093 71.0246 17.2213C70.7924 16.5173 70.5525 15.8053 70.3048 15.0853H63.0135L61.5506 19.3333H59.2053C59.8245 17.5733 60.405 15.9493 60.9468 14.4613C61.4886 12.9573 62.015 11.5333 62.5258 10.1893C63.0522 8.84533 63.5708 7.56533 64.0816 6.34933C64.5925 5.11733 65.1265 3.90133 65.6838 2.70133H67.7505C68.3078 3.90133 68.8419 5.11733 69.3527 6.34933C69.8636 7.56533 70.3744 8.84533 70.8853 10.1893C71.4116 11.5333 71.9457 12.9573 72.4875 14.4613C73.0294 15.9493 73.6099 17.5733 74.2291 19.3333H71.7677ZM69.6546 13.1653C69.1592 11.7733 68.6638 10.4293 68.1685 9.13334C67.6886 7.82133 67.1855 6.56533 66.6591 5.36533C66.1173 6.56533 65.5987 7.82133 65.1033 9.13334C64.6234 10.4293 64.1435 11.7733 63.6636 13.1653H69.6546Z" fill="#414652"/>
<path d="M80.2988 19.6213C79.3235 19.6213 78.4643 19.4613 77.7213 19.1413C76.9937 18.8213 76.3745 18.3733 75.8636 17.7973C75.3682 17.2213 74.9967 16.5413 74.749 15.7573C74.5013 14.9573 74.3775 14.0773 74.3775 13.1173C74.3775 12.1573 74.5091 11.2773 74.7722 10.4773C75.0509 9.67733 75.4379 8.98933 75.9333 8.41334C76.4287 7.82133 77.0324 7.36533 77.7445 7.04533C78.4721 6.70933 79.2771 6.54133 80.1595 6.54133C80.7013 6.54133 81.2431 6.58933 81.7849 6.68533C82.3267 6.78133 82.8453 6.93333 83.3407 7.14133L82.8531 9.03734C82.528 8.87734 82.1487 8.74934 81.7153 8.65333C81.2973 8.55733 80.8483 8.50933 80.3685 8.50933C79.161 8.50933 78.2321 8.90133 77.582 9.68534C76.9473 10.4693 76.6299 11.6133 76.6299 13.1173C76.6299 13.7893 76.6996 14.4053 76.8389 14.9653C76.9937 15.5253 77.2259 16.0053 77.5355 16.4053C77.8606 16.8053 78.2708 17.1173 78.7662 17.3413C79.2616 17.5493 79.8653 17.6533 80.5774 17.6533C81.1502 17.6533 81.6688 17.5973 82.1332 17.4853C82.5976 17.3733 82.9614 17.2533 83.2246 17.1253L83.5265 18.9973C83.4026 19.0773 83.2246 19.1573 82.9924 19.2373C82.7602 19.3013 82.497 19.3573 82.2029 19.4053C81.9088 19.4693 81.5914 19.5173 81.2508 19.5493C80.9258 19.5973 80.6084 19.6213 80.2988 19.6213Z" fill="#414652"/>
<path d="M89.003 17.7253C89.5138 17.7253 89.9627 17.7173 90.3498 17.7013C90.7522 17.6693 91.0851 17.6213 91.3483 17.5573V13.8373C91.1934 13.7573 90.938 13.6933 90.582 13.6453C90.2414 13.5813 89.8234 13.5493 89.328 13.5493C89.003 13.5493 88.6546 13.5733 88.2831 13.6213C87.9271 13.6693 87.5942 13.7733 87.2846 13.9333C86.9905 14.0773 86.7428 14.2853 86.5416 14.5573C86.3403 14.8133 86.2397 15.1573 86.2397 15.5893C86.2397 16.3893 86.4874 16.9493 86.9827 17.2693C87.4781 17.5733 88.1515 17.7253 89.003 17.7253ZM88.8172 6.54133C89.6841 6.54133 90.4117 6.66133 90.9999 6.90133C91.6037 7.12533 92.0836 7.45333 92.4396 7.88533C92.8112 8.30133 93.0743 8.80533 93.2291 9.39733C93.3839 9.97333 93.4613 10.6133 93.4613 11.3173V19.1173C93.2756 19.1493 93.0124 19.1973 92.6718 19.2613C92.3467 19.3093 91.9752 19.3573 91.5572 19.4053C91.1393 19.4533 90.6826 19.4933 90.1872 19.5253C89.7073 19.5733 89.2274 19.5973 88.7475 19.5973C88.0664 19.5973 87.4394 19.5253 86.8666 19.3813C86.2939 19.2373 85.7985 19.0133 85.3805 18.7093C84.9625 18.3893 84.6374 17.9733 84.4052 17.4613C84.173 16.9493 84.0569 16.3333 84.0569 15.6133C84.0569 14.9253 84.1885 14.3333 84.4517 13.8373C84.7303 13.3413 85.1019 12.9413 85.5663 12.6373C86.0307 12.3333 86.5725 12.1093 87.1917 11.9653C87.811 11.8213 88.4611 11.7493 89.1423 11.7493C89.359 11.7493 89.5835 11.7653 89.8157 11.7973C90.0479 11.8133 90.2646 11.8453 90.4659 11.8933C90.6826 11.9253 90.8684 11.9573 91.0232 11.9893C91.178 12.0213 91.2863 12.0453 91.3483 12.0613V11.4373C91.3483 11.0693 91.3096 10.7093 91.2322 10.3573C91.1548 9.98933 91.0154 9.66933 90.8142 9.39733C90.6129 9.10933 90.3343 8.88534 89.9782 8.72533C89.6376 8.54934 89.1887 8.46133 88.6314 8.46133C87.9193 8.46133 87.2924 8.51733 86.7505 8.62933C86.2242 8.72533 85.8294 8.82933 85.5663 8.94133L85.3108 7.09333C85.5895 6.96533 86.0539 6.84533 86.7041 6.73333C87.3543 6.60533 88.0586 6.54133 88.8172 6.54133Z" fill="#414652"/>
<path d="M103.921 9.49333C103.658 9.26933 103.279 9.05333 102.784 8.84533C102.288 8.63733 101.746 8.53333 101.158 8.53333C100.539 8.53333 100.005 8.65333 99.5559 8.89333C99.1224 9.11733 98.7664 9.43733 98.4877 9.85334C98.2091 10.2533 98.0078 10.7333 97.884 11.2933C97.7602 11.8533 97.6982 12.4533 97.6982 13.0933C97.6982 14.5493 98.0465 15.6773 98.7432 16.4773C99.4398 17.2613 100.369 17.6533 101.53 17.6533C102.118 17.6533 102.606 17.6293 102.993 17.5813C103.395 17.5173 103.705 17.4533 103.921 17.3893V9.49333ZM103.921 1.09333L106.081 0.709333V18.9733C105.586 19.1173 104.951 19.2613 104.177 19.4053C103.403 19.5493 102.513 19.6213 101.506 19.6213C100.578 19.6213 99.7417 19.4693 98.9986 19.1653C98.2555 18.8613 97.6208 18.4293 97.0945 17.8693C96.5682 17.3093 96.1579 16.6293 95.8638 15.8293C95.5851 15.0133 95.4458 14.1013 95.4458 13.0933C95.4458 12.1333 95.5619 11.2533 95.7941 10.4533C96.0418 9.65334 96.3979 8.96533 96.8623 8.38933C97.3267 7.81333 97.8917 7.36533 98.5574 7.04533C99.2385 6.72533 100.013 6.56533 100.879 6.56533C101.576 6.56533 102.188 6.66133 102.714 6.85333C103.256 7.04533 103.658 7.22933 103.921 7.40533V1.09333Z" fill="#414652"/>
<path d="M108.191 13.1173C108.191 12.0133 108.346 11.0533 108.655 10.2373C108.965 9.40534 109.375 8.71733 109.886 8.17333C110.397 7.62933 110.985 7.22133 111.651 6.94933C112.316 6.67733 112.998 6.54133 113.694 6.54133C115.32 6.54133 116.566 7.06933 117.433 8.12533C118.3 9.16534 118.733 10.7573 118.733 12.9013C118.733 12.9973 118.733 13.1253 118.733 13.2853C118.733 13.4293 118.725 13.5653 118.71 13.6933H110.443C110.536 14.9893 110.9 15.9733 111.535 16.6453C112.169 17.3173 113.16 17.6533 114.507 17.6533C115.266 17.6533 115.9 17.5893 116.411 17.4613C116.937 17.3173 117.332 17.1813 117.595 17.0533L117.897 18.9253C117.634 19.0693 117.17 19.2213 116.504 19.3813C115.854 19.5413 115.111 19.6213 114.275 19.6213C113.222 19.6213 112.309 19.4613 111.535 19.1413C110.776 18.8053 110.149 18.3493 109.654 17.7733C109.158 17.1973 108.787 16.5173 108.539 15.7333C108.307 14.9333 108.191 14.0613 108.191 13.1173ZM116.481 11.8933C116.496 10.8853 116.249 10.0613 115.738 9.42133C115.242 8.76533 114.553 8.43733 113.671 8.43733C113.176 8.43733 112.734 8.54133 112.347 8.74933C111.976 8.94133 111.659 9.19734 111.395 9.51734C111.132 9.83734 110.923 10.2053 110.768 10.6213C110.629 11.0373 110.536 11.4613 110.49 11.8933H116.481Z" fill="#414652"/>
<path d="M120.906 7.21333C121.402 7.08533 122.052 6.94933 122.857 6.80533C123.678 6.66133 124.622 6.58933 125.69 6.58933C126.464 6.58933 127.114 6.70133 127.641 6.92533C128.167 7.13333 128.608 7.44533 128.964 7.86133C129.072 7.78133 129.243 7.66933 129.475 7.52533C129.707 7.38133 129.994 7.24533 130.334 7.11733C130.675 6.97333 131.054 6.85333 131.472 6.75733C131.89 6.64533 132.339 6.58933 132.819 6.58933C133.748 6.58933 134.506 6.73333 135.094 7.02133C135.683 7.29333 136.139 7.68533 136.464 8.19733C136.805 8.70933 137.029 9.31734 137.138 10.0213C137.262 10.7253 137.324 11.4933 137.324 12.3253V19.3333H135.164V12.8053C135.164 12.0693 135.125 11.4373 135.048 10.9093C134.986 10.3813 134.854 9.94133 134.653 9.58933C134.467 9.23733 134.204 8.98133 133.864 8.82133C133.539 8.64533 133.113 8.55733 132.587 8.55733C131.859 8.55733 131.255 8.66133 130.775 8.86933C130.311 9.06133 129.994 9.23733 129.823 9.39733C129.947 9.81333 130.04 10.2693 130.102 10.7653C130.164 11.2613 130.195 11.7813 130.195 12.3253V19.3333H128.035V12.8053C128.035 12.0693 127.997 11.4373 127.919 10.9093C127.842 10.3813 127.702 9.94133 127.501 9.58933C127.315 9.23733 127.052 8.98133 126.712 8.82133C126.387 8.64533 125.969 8.55733 125.458 8.55733C125.241 8.55733 125.009 8.56533 124.761 8.58133C124.513 8.59733 124.274 8.62133 124.041 8.65333C123.825 8.66933 123.623 8.69333 123.438 8.72533C123.252 8.75733 123.128 8.78133 123.066 8.79733V19.3333H120.906V7.21333Z" fill="#414652"/>
<path d="M138.154 21.6613C138.324 21.7413 138.541 21.8133 138.804 21.8773C139.083 21.9573 139.353 21.9973 139.617 21.9973C140.468 21.9973 141.134 21.7973 141.614 21.3973C142.094 21.0133 142.527 20.3813 142.914 19.5013C141.939 17.5813 141.025 15.5493 140.174 13.4053C139.338 11.2453 138.641 9.06133 138.084 6.85333H140.406C140.576 7.57333 140.778 8.34933 141.01 9.18133C141.258 10.0133 141.528 10.8693 141.823 11.7493C142.117 12.6293 142.434 13.5093 142.775 14.3893C143.115 15.2693 143.471 16.1173 143.843 16.9333C144.431 15.2533 144.942 13.5893 145.375 11.9413C145.809 10.2933 146.219 8.59733 146.606 6.85333H148.835C148.278 9.20533 147.659 11.4693 146.978 13.6453C146.296 15.8053 145.561 17.8293 144.772 19.7173C144.462 20.4373 144.137 21.0533 143.796 21.5653C143.471 22.0933 143.107 22.5253 142.705 22.8613C142.303 23.1973 141.846 23.4453 141.335 23.6053C140.84 23.7653 140.275 23.8453 139.64 23.8453C139.47 23.8453 139.292 23.8293 139.106 23.7973C138.92 23.7813 138.734 23.7493 138.548 23.7013C138.378 23.6693 138.216 23.6293 138.061 23.5813C137.922 23.5333 137.821 23.4933 137.759 23.4613L138.154 21.6613Z" fill="#414652"/>
</svg>
